<svg xmlns="http://www.w3.org/2000/svg" viewBox="0 0 300.91 301.15"><path fill="#000000" d="M121.69,254c-1.21-82.46,67.91-150.65,150.4-150.61s150.85,68.33,150.49,151.29c-0.36,82-68.42,150.29-151.42,149.86C189.32,404.15,120.53,336.36,121.69,254Zm126.74,80.79c2.76,0,4.63-1.59,6.43-3.39Q311.57,274.73,368.26,218c4.67-4.67,4.55-7.42-.23-12.26-6.09-6.16-12.22-12.27-18.35-18.4-6.9-6.91-9.24-7-16-.15q-38.56,38.8-77.1,77.62c-6.58,6.63-9.43,6.61-16.22.06q-15.11-14.56-30.27-29.06c-5.71-5.45-8.76-5.43-14.34.24-6.31,6.41-12.46,13-18.72,19.42-5.07,5.23-5.14,7.89.06,13,21.65,21.2,44.3,41.39,65.26,63.3C244,333.5,245.89,334.83,248.43,334.82Z" transform="translate(-121.67 -103.42)"/></svg>