<svg xmlns="http://www.w3.org/2000/svg" viewBox="0 0 301.15 300.91"><path fill="#000000" d="M232.06,76.74c82.47-1.21,150.65,67.9,150.62,150.4S314.35,378,231.4,377.63c-82-.36-150.29-68.42-149.86-151.41C82,144.38,149.75,75.59,232.06,76.74Zm73,199.38c0.07-2.82-1.83-4.53-3.6-6.3q-15.19-15.2-30.38-30.41c-6.58-6.6-6.57-9.25-.1-15.72,10.25-10.25,20.52-20.48,30.71-30.78,4.44-4.49,4.55-7.51.21-12-6-6.25-12.16-12.35-18.35-18.4-5.55-5.43-8.36-5.42-13.9.06-10,9.84-19.81,19.77-29.7,29.67-6.68,6.69-9.37,6.71-16.1,0-10-10-20-20-30.05-30-5.24-5.2-7.85-5.19-13-.08-5.92,5.86-11.79,11.77-17.67,17.67s-5.92,8.38.16,14.47c10.11,10.15,20.28,20.25,30.38,30.41,5.37,5.4,5.34,8.42-.1,13.88-10.46,10.51-21,20.94-31.41,31.49-4.7,4.77-4.62,7.56,0,12.29q9.14,9.24,18.37,18.38c5.41,5.38,7.94,5.4,13.34,0q15.22-15.17,30.39-30.4c6-6,9.07-6,15-.05,10.13,10.13,20.22,20.3,30.41,30.38,5.48,5.41,8.36,5.36,13.92-.1,6.06-6,12-12,18-18C303.46,280.76,305.11,278.89,305,276.12Z" transform="translate(-81.53 -76.73)"/></svg>